HIERARCHY
ROOT Hips
{
  OFFSET 13.6774 106.653 -34.4427
  CHANNELS 6 Xposition Yposition Zposition Zrotation Xrotation Yrotation
  JOINT ToSpine
  {
    OFFSET -2.69724 7.43032 -0.144315
    CHANNELS 3 Zrotation Xrotation Yrotation
    JOINT Spine
    {
      OFFSET -0.0310711 10.7595 1.96963
      CHANNELS 3 Zrotation Xrotation Yrotation
      JOINT Spine1
      {
        OFFSET 19.9056 3.91189 0.764692
        CHANNELS 3 Zrotation Xrotation Yrotation
        JOINT Neck
        {
          OFFSET 25.9749 7.03908 -0.130764
          CHANNELS 3 Zrotation Xrotation Yrotation
          JOINT Head
          {
            OFFSET 9.52751 0.295786 -0.907742
            CHANNELS 3 Zrotation Xrotation Yrotation
            End Site
            {
              OFFSET 16.4037 0.713936 2.7358
            }
          }
        }
        JOINT LeftShoulder
        {
          OFFSET 17.7449 4.33886 11.7777
          CHANNELS 3 Zrotation Xrotation Yrotation
          JOINT LeftArm
          {
            OFFSET 0.911315 1.27913 9.80584
            CHANNELS 3 Zrotation Xrotation Yrotation
            JOINT LeftForeArm
            {
              OFFSET 28.6126 1.18197 -3.53199
              CHANNELS 3 Zrotation Xrotation Yrotation
              JOINT LeftHand
              {
                OFFSET 27.5088 0.0218783 0.327423
                CHANNELS 3 Zrotation Xrotation Yrotation
                End Site
                {
                  OFFSET 18.6038 -0.000155887 0.382096
                }
              }
            }
          }
        }
        JOINT RightShoulder
        {
          OFFSET 17.1009 2.89543 -12.2328
          CHANNELS 3 Zrotation Xrotation Yrotation
          JOINT RightArm
          {
            OFFSET 1.4228 0.178766 -10.211
            CHANNELS 3 Zrotation Xrotation Yrotation
            JOINT RightForeArm
            {
              OFFSET 28.733 1.87905 2.64907
              CHANNELS 3 Zrotation Xrotation Yrotation
              JOINT RightHand
              {
                OFFSET 27.4588 0.290562 -0.101845
                CHANNELS 3 Zrotation Xrotation Yrotation
                End Site
                {
                  OFFSET 17.8396 -0.255518 -0.000602873
                }
              }
            }
          }
        }
      }
    }
  }
  JOINT LeftUpLeg
  {
    OFFSET -5.61296 -2.22332 -10.2353
    CHANNELS 3 Zrotation Xrotation Yrotation
    JOINT LeftLeg
    {
      OFFSET 2.56703 -44.7417 -7.93097
      CHANNELS 3 Zrotation Xrotation Yrotation
      JOINT LeftFoot
      {
        OFFSET 3.16933 -46.5642 -3.96578
        CHANNELS 3 Zrotation Xrotation Yrotation
        JOINT LeftToeBase
        {
          OFFSET 0.346054 -6.02161 12.8035
          CHANNELS 3 Zrotation Xrotation Yrotation
          End Site
          {
            OFFSET 0.134235 -1.35082 5.13018
          }
        }
      }
    }
  }
  JOINT RightUpLeg
  {
    OFFSET -5.7928 -1.72406 10.6446
    CHANNELS 3 Zrotation Xrotation Yrotation
    JOINT RightLeg
    {
      OFFSET -2.57161 -44.7178 -7.85259
      CHANNELS 3 Zrotation Xrotation Yrotation
      JOINT RightFoot
      {
        OFFSET -3.10148 -46.5936 -4.03391
        CHANNELS 3 Zrotation Xrotation Yrotation
        JOINT RightToeBase
        {
          OFFSET -0.0828122 -6.13587 12.8035
          CHANNELS 3 Zrotation Xrotation Yrotation
          End Site
          {
            OFFSET -0.131328 -1.35082 5.13018
          }
        }
      }
    }
  }
}
MOTION
Frames: 8
Frame Time: 0.03333333333333333
0.0000 93.1000 0.0000 76.5238 13.6550 1.7569 -70.7731 -1.1917 87.9961 80.5919 67.8364 5.3443 1.1810 18.0886 2.9587 -140.3816 32.2425 157.8443 -147.7587 73.3846 174.6184 -0.1400 -12.7369 -8.3693 -81.2230 15.8984 -158.6705 -3.2439 0.1485 -94.4053 -0.2665 0.5074 0.0284 -1.4727 9.5326 16.0637 -47.8532 -1.7634 135.2897 -4.7719 -1.0110 98.0339 -0.2333 -0.7511 -0.3764 -57.1925 15.5475 96.0360 -1.2547 33.7995 5.0364 -2.8244 -6.6138 -0.8568 1.2195 -7.8336 10.0671 -43.3712 -10.9161 82.9455 2.2840 48.0890 -0.0728 -7.5581 -12.0454 0.6084 2.8173 -12.3688 -13.3192 
0.0000 93.1000 0.0000 76.6978 13.8889 1.4382 -70.7148 -0.1385 88.0578 80.6367 68.0580 5.1309 0.9888 18.2782 2.7161 -141.6116 33.0785 156.9273 -147.6669 73.5422 171.9044 0.7482 -12.8303 -7.8393 -81.2500 16.2569 -159.8007 -3.2932 0.0057 -94.1841 0.4553 -0.1747 -0.2604 -1.2651 9.2064 15.8090 -47.9746 -2.0609 135.9129 -4.5198 -1.2740 98.6171 -0.3204 0.0549 -0.5044 -58.1217 14.9158 95.3994 -0.4921 33.0106 5.6610 -2.0798 -6.3384 -0.8676 0.8079 -6.4996 9.3450 -43.3414 -11.2458 82.7669 1.9412 49.1447 0.0946 -6.7130 -13.0404 1.2544 2.7923 -11.8033 -14.2321 
0.0000 93.1000 0.0000 75.4142 14.3682 1.6871 -70.5649 -0.5978 87.9757 80.0783 68.4089 4.9762 1.1843 17.8660 2.8385 -140.2952 32.9603 155.9781 -148.6911 74.1107 174.1875 0.3253 -12.8068 -8.1041 -80.9069 16.0938 -160.0179 -3.5981 -0.1785 -94.2550 0.0974 0.5454 -0.0164 -1.0702 9.0566 15.6664 -47.0540 -2.7618 135.5144 -3.7827 -1.0856 97.9924 -0.2609 -0.7597 -0.0795 -58.4579 14.5759 95.2301 -0.4576 32.6486 6.7099 -2.8600 -6.7938 -1.3895 -0.2637 -5.5943 8.5100 -42.2315 -11.2442 83.1396 2.0889 50.1816 -1.1252 -6.0184 -13.7350 1.2673 0.9121 -12.0869 -14.3608 
0.0000 93.1000 0.0000 76.2475 14.1166 0.7416 -70.7519 -0.4648 88.1046 80.7703 69.3168 5.1443 1.0186 18.1936 3.3601 -140.0961 33.2958 155.9232 -150.4139 74.0740 175.9317 0.5333 -12.8988 -8.1709 -81.1393 16.4368 -160.0372 -3.0980 -0.1757 -94.3232 0.0490 0.2867 -0.2612 -1.1812 9.4804 15.7190 -46.9353 -2.5219 136.0264 -3.8127 -0.9466 97.7864 -0.1032 -0.4010 -0.0133 -58.4129 14.9453 94.1615 -0.2687 32.7561 7.0516 -3.4114 -6.1397 -0.8562 -0.0623 -5.9185 9.3031 -42.3246 -10.6868 83.2567 2.8829 51.0569 0.1911 -7.6108 -13.9183 1.2471 2.1446 -12.6392 -15.5879 
0.0000 93.1000 0.0000 75.5080 13.9110 -0.5615 -70.9268 0.6094 88.0485 81.0486 69.1538 4.5073 1.2049 18.2492 3.5354 -139.7620 33.0699 156.6411 -151.3321 74.0299 176.9054 1.3176 -12.8103 -7.8262 -80.2030 16.5400 -160.7062 -1.8344 0.2827 -94.1281 0.3415 -0.0387 -0.2701 -0.4639 9.1762 15.6562 -47.0356 -2.7547 136.6663 -3.8233 -1.1208 96.6526 0.1440 0.0246 0.2828 -57.7171 14.9595 95.2659 -0.8521 33.1856 5.4654 -2.9463 -6.5279 -1.4075 0.3774 -6.1143 9.8161 -41.2212 -11.0588 83.8990 2.5284 51.2921 -0.3402 -7.1804 -13.3737 1.8113 2.9333 -12.0422 -14.9322 
0.0000 93.1000 0.0000 75.0866 14.2905 -0.2950 -70.9311 0.8446 87.9196 83.1292 68.9327 3.2886 0.5657 18.0301 3.0918 -139.9709 33.0523 156.8839 -151.7706 74.0663 176.8345 1.5008 -12.7781 -8.7500 -79.2755 16.9839 -160.4678 -1.5884 -0.0879 -94.2411 -0.0045 -0.1339 0.0929 -0.3120 9.5990 14.9663 -47.8644 -4.1427 137.2106 -3.6075 -1.3223 97.1467 0.2197 0.2137 0.5749 -57.1219 15.0843 95.1291 -1.1296 33.9883 4.6063 -3.6606 -6.8075 -1.3931 0.8258 -5.7760 9.8750 -39.8916 -12.0621 83.0930 2.7624 52.2924 -0.0692 -6.0702 -13.6707 1.8990 2.4790 -11.7398 -12.0694 
0.0000 93.1000 0.0000 73.8816 14.9875 0.0175 -71.0590 0.2691 88.0452 83.7757 69.0311 2.5601 0.0946 17.7614 2.9649 -140.0420 33.1975 157.1079 -151.9733 74.7482 177.4182 1.2341 -12.9578 -9.1839 -77.7327 18.0297 -160.4199 -1.0447 0.0145 -93.1080 -0.4444 -0.2103 0.1388 -0.8279 9.9662 14.8063 -49.3298 -5.0041 134.7891 -1.4716 -0.5445 97.1187 0.0171 0.3057 0.3363 -56.1583 14.0712 95.8350 -1.9830 33.8124 2.3081 -4.5939 -7.1361 -0.7476 1.0945 -6.8373 10.8376 -39.4163 -14.0943 82.8502 2.1702 51.8646 -0.1070 -5.9092 -13.7155 1.1313 0.6330 -9.7583 -9.0460 
0.0000 93.1000 0.0000 74.3335 15.9853 -0.1594 -71.0370 0.8157 87.9873 86.2313 69.2040 -0.1965 -0.5356 17.9401 3.7451 -140.0199 33.9313 156.7796 -150.5658 75.1289 176.1816 1.5667 -12.7757 -10.0049 -78.1675 18.6490 -160.4576 -0.2752 -1.1267 -93.3330 0.1125 -0.3366 -0.1117 -0.4783 9.1219 15.2215 -52.0061 -6.5266 132.8668 0.4886 -0.9057 96.8900 0.6074 0.4514 0.2487 -54.7336 13.7598 95.2442 -2.0578 34.0180 -3.6816 -3.7177 -7.6922 -1.2165 1.9442 -9.3298 13.9997 -38.0622 -15.3218 82.2900 2.3540 52.5134 1.3720 -6.9236 -12.5940 1.8547 2.1926 -13.1958 -10.7082 
